g Left
v 0.01750666 0.03000004 -0.4941773
v 0.3079366 0.02999999 -0.1064291
v 0.01690148 0.03000001 -0.02922815
v 0.01750666 0.03000004 -0.4941773
v 0.3079366 -0.03000003 -0.1064291
v 0.3079366 0.02999999 -0.1064291
v 0.01750666 -0.02999997 -0.4941773
v 0.01750666 -0.02999997 -0.4941773
v 0.01690148 -0.03000002 -0.02922817
v 0.3079366 -0.03000003 -0.1064291
v 0.01750666 -0.02999997 -0.4941773
v 0.01690148 0.03000001 -0.02922815
v 0.01690148 -0.03000002 -0.02922817
v 0.01750666 0.03000004 -0.4941773
v 0.01690148 -0.03000002 -0.02922817
v 0.01690148 0.03000001 -0.02922815
v 0.2181879 -0.03000005 0.1102247
v 0.2181879 0.02999999 0.1102247
v 0.3079366 0.02999999 -0.1064291
v 0.3079366 -0.03000003 -0.1064291
v 0.2181879 0.02999999 0.1102247
v 0.2181879 -0.03000005 0.1102247
v 0.2181879 -0.03000005 0.1102247
v 0.2181879 0.02999999 0.1102247
vt 0.1989784 1.238987
vt 0.6266847 0.2231298
vt -0.1753948 0.2539921
vt -0.04999994 1.064692
vt 0.05000005 -0.03753218
vt -0.04999995 -0.03753218
vt 0.05000006 1.064692
vt -0.1989784 1.238987
vt 0.1753948 0.2539921
vt -0.6266847 0.2231298
vt -0.05000006 1.228849
vt 0.04999996 0.1751073
vt -0.05000004 0.1751073
vt 0.04999994 1.228849
vt -0.05000004 0.3054295
vt 0.04999996 0.3054295
vt -0.05000005 -0.2819607
vt 0.04999998 -0.2819607
vt -0.6018987 -0.04999995
vt -0.6018987 0.05000005
vt -0.03537525 -0.04999998
vt -0.03537525 0.05000005
vt -0.2247009 -0.1760667
vt 0.2247009 -0.1760667
vn 8.422066E-08 1 7.622602E-08
vn 8.422066E-08 1 7.622602E-08
vn 8.422066E-08 1 7.622602E-08
vn 0.8003775 0 -0.5994963
vn 0.8003775 0 -0.5994963
vn 0.8003775 0 -0.5994963
vn 0.8003775 0 -0.5994963
vn -8.31336E-08 -1 -9.625525E-08
vn -8.31336E-08 -1 -9.625525E-08
vn -8.31336E-08 -1 -9.625525E-08
vn -0.9999991 0 -0.001301617
vn -0.9999991 0 -0.001301617
vn -0.9999991 0 -0.001301617
vn -0.9999992 0 -0.001301617
vn -0.5694881 -2.551822E-07 0.8219995
vn -0.569488 -1.275911E-07 0.8219995
vn -0.569488 -1.275911E-07 0.8219995
vn -0.569488 0 0.8219996
vn 0.9238678 -9.504745E-08 0.3827118
vn 0.9238678 -4.752372E-08 0.3827118
vn 0.9238678 -4.752372E-08 0.3827118
vn 0.9238678 0 0.3827118
vn -9.03324E-08 -1 -1.233935E-07
vn 7.190162E-08 1 2.978521E-08
g Left_0
f 3/3/3 2/2/2 1/1/1
f 6/6/6 5/5/5 4/4/4
f 5/5/5 7/7/7 4/4/4
f 10/10/10 9/9/9 8/8/8
f 13/13/13 12/12/12 11/11/11
f 12/12/12 14/14/14 11/11/11
f 17/17/17 16/16/16 15/15/15
f 17/17/17 18/18/18 16/16/16
f 21/21/21 20/20/20 19/19/19
f 21/21/21 22/22/22 20/20/20
f 9/9/9 10/10/10 23/23/23
f 2/2/2 3/3/3 24/24/24
