g Main
v 0 0.0299999 0.7413668
v -0.2108126 0.02999999 0.1413668
v 0.2108126 0.02999999 0.1413668
v 0 0.0299999 0.7413668
v -0.2108126 -0.03000003 0.1413668
v -0.2108126 0.02999999 0.1413668
v 0 -0.03000011 0.7413667
v 0 -0.03000011 0.7413667
v 0.2108126 -0.03000003 0.1413668
v -0.2108126 -0.03000003 0.1413668
v 0 -0.03000011 0.7413667
v 0.2108126 0.02999999 0.1413668
v 0.2108126 -0.03000003 0.1413668
v 0 0.0299999 0.7413668
v 0.2108126 -0.03000003 0.1413668
v 0.2108126 0.02999999 0.1413668
v 0 -0.03000002 3.129244E-08
v 0 0.03000001 4.023314E-08
v -0.2108126 0.02999999 0.1413668
v -0.2108126 -0.03000003 0.1413668
v 0 0.03000001 4.023314E-08
v 0 -0.03000002 3.129244E-08
v 0 -0.03000002 3.129244E-08
v 0 0.03000001 4.023314E-08
vt 0 1.235611
vt 0.3513543 0.2356112
vt -0.3513543 0.2356112
vt -0.05 1.165749
vt 0.05 0.1058197
vt -0.05 0.1058197
vt 0.05 1.165749
vt 0 1.235611
vt 0.3513543 0.2356112
vt -0.3513543 0.2356112
vt -0.05 1.165749
vt 0.05 0.1058197
vt -0.05 0.1058197
vt 0.05 1.165749
vt 0.4230396 0.05
vt 0.4230396 -0.05
vt 3.319671E-08 0.05000002
vt 3.319671E-08 -0.05000001
vt -0.4230396 -0.05
vt -0.4230396 0.05
vt -3.319671E-08 -0.05000001
vt -3.319671E-08 0.05000002
vt 0 5.644241E-08
vt 0 5.644241E-08
vn 0 1 1.490116E-07
vn 0 1 1.490116E-07
vn 0 1 1.490116E-07
vn -0.9434593 -1.646521E-07 0.3314885
vn -0.9434593 -1.646521E-07 0.3314885
vn -0.9434593 0 0.3314885
vn -0.9434593 -3.293042E-07 0.3314885
vn 0 -1 -1.490116E-07
vn 0 -1 -1.490116E-07
vn 0 -1 -1.490116E-07
vn 0.9434593 -1.646521E-07 0.3314885
vn 0.9434593 -1.646521E-07 0.3314885
vn 0.9434593 0 0.3314885
vn 0.9434593 -3.293042E-07 0.3314885
vn 0.5569484 0 -0.8305472
vn 0.5569484 6.115281E-08 -0.8305472
vn 0.5569484 6.115281E-08 -0.8305472
vn 0.5569483 1.223056E-07 -0.8305472
vn -0.5569483 0 -0.8305472
vn -0.5569484 6.115281E-08 -0.8305472
vn -0.5569484 6.115281E-08 -0.8305472
vn -0.5569484 1.223056E-07 -0.8305471
vn 0 -1 -5.270392E-08
vn 0 1 1.581118E-07
g Main_0
f 3/3/3 2/2/2 1/1/1
f 6/6/6 5/5/5 4/4/4
f 5/5/5 7/7/7 4/4/4
f 10/10/10 9/9/9 8/8/8
f 13/13/13 12/12/12 11/11/11
f 12/12/12 14/14/14 11/11/11
f 17/17/17 16/16/16 15/15/15
f 17/17/17 18/18/18 16/16/16
f 21/21/21 20/20/20 19/19/19
f 21/21/21 22/22/22 20/20/20
f 9/9/9 10/10/10 23/23/23
f 2/2/2 3/3/3 24/24/24
